Coordinates
version=1
nRows=9
nColumns=38
inDegrees=yes

Units are S.I. units (second, meters, Newtons, ...)
Angles are in degrees.

endheader
time	pelvis_tilt	pelvis_list	pelvis_rotation	pelvis_tx	pelvis_ty	pelvis_tz	hip_flexion_r	hip_adduction_r	hip_rotation_r	knee_angle_r	ankle_angle_r	subtalar_angle_r	mtp_angle_r	hip_flexion_l	hip_adduction_l	hip_rotation_l	knee_angle_l	ankle_angle_l	subtalar_angle_l	mtp_angle_l	lumbar_extension	lumbar_bending	lumbar_rotation	arm_flex_r	arm_add_r	arm_rot_r	elbow_flex_r	pro_sup_r	wrist_flex_r	wrist_dev_r	arm_flex_l	arm_add_l	arm_rot_l	elbow_flex_l	pro_sup_l	wrist_flex_l	wrist_dev_l
      8.10000000	    -10.49180984	      3.01098151	      1.21196580	     -0.11183342	      0.88990281	      2.61348900	    -11.09223036	     -2.35103658	      2.36405491	    -47.78308082	    -28.48430839	      0.00000000	      0.00000000	     33.11910782	      3.72226659	      2.62127268	    -10.87023937	     -4.36784734	      0.00000000	      0.00000000	      1.16780880	     -3.70162276	     17.45139529	     22.86798009	    -10.13218184	     34.87264304	    127.20121987	     92.48045240	      0.00000000	      0.00000000	    -42.01787977	    -16.94230876	     -7.19176819	    116.29255293	     98.70051520	      0.00000000	      0.00000000
      8.11000000	    -10.08742295	      2.98693336	      1.47124180	     -0.11113429	      0.88358016	      2.61245430	     -9.92458355	     -2.21386201	      1.83903125	    -52.97272854	    -26.42028270	      0.00000000	      0.00000000	     32.14653624	      3.94272146	      2.31275667	    -11.21019602	     -4.92069364	      0.00000000	      0.00000000	      0.62550012	     -3.92133457	     16.71451627	     21.61907135	    -10.37506077	     34.99978920	    126.59852475	     92.36906595	      0.00000000	      0.00000000	    -41.24760754	    -17.08284602	     -7.26279206	    116.16971312	     98.71741078	      0.00000000	      0.00000000
      8.12000000	     -9.66013139	      3.08042138	      1.84462824	     -0.11081491	      0.87629194	      2.61111361	     -8.63716780	     -2.30530726	      1.02279470	    -58.26398973	    -24.26171064	      0.00000000	      0.00000000	     31.14085515	      4.31767657	      2.06723675	    -11.97034511	     -5.56141959	      0.00000000	      0.00000000	      0.03297274	     -4.24498438	     15.72588043	     20.37461439	    -10.68847633	     35.08989740	    125.78851473	     92.30847641	      0.00000000	      0.00000000	    -40.29601818	    -17.26290065	     -7.24394229	    116.04987329	     98.52324143	      0.00000000	      0.00000000
      8.13000000	     -9.19367993	      3.33847486	      2.35076100	     -0.11069762	      0.86789074	      2.60929142	     -7.23741269	     -2.70393031	     -0.05987826	    -63.66551672	    -22.07973024	      0.00000000	      0.00000000	     30.32756734	      4.94091016	      1.91248150	    -13.59429939	     -5.94651252	      0.00000000	      0.00000000	     -0.68218352	     -4.72413759	     14.44868261	     19.18881924	    -11.08080468	     35.16859780	    124.77179374	     92.36277247	      0.00000000	      0.00000000	    -39.11993588	    -17.46941783	     -7.10879634	    115.91316170	     98.07943288	      0.00000000	      0.00000000
      8.14000000	     -8.67244816	      3.83924142	      2.98889714	     -0.11109599	      0.85871884	      2.60696727	     -5.72560636	     -3.51654931	     -1.33684839	    -69.18929574	    -19.93254523	      0.00000000	      0.00000000	     29.92676409	      5.96274471	      1.92798259	    -16.60723526	     -5.64311478	      0.00000000	      0.00000000	     -1.64326860	     -5.42739038	     12.84959398	     18.10065373	    -11.55194508	     35.20685294	    123.52738287	     92.53612007	      0.00000000	      0.00000000	    -37.65762967	    -17.69089264	     -6.80511572	    115.73975554	     97.39506410	      0.00000000	      0.00000000
      8.15000000	     -8.08472428	      4.65267462	      3.73462798	     -0.11286785	      0.84972067	      2.60414548	     -4.08075453	     -4.83056210	     -2.68223901	    -74.83504171	    -17.84865627	      0.00000000	      0.00000000	     30.05709626	      7.50868899	      2.22662926	    -21.26274994	     -4.30554407	      0.00000000	      0.00000000	     -2.93951216	     -6.40063922	     10.92734159	     17.10256440	    -12.07874078	     35.11581117	    122.02777767	     92.76815415	      0.00000000	      0.00000000	    -35.84474300	    -17.94325196	     -6.27979910	    115.53969485	     96.54078465	      0.00000000	      0.00000000
      8.16000000	     -7.43519866	      5.77613417	      4.53734742	     -0.11611732	      0.84103751	      2.60072239	     -2.25416847	     -6.65006129	     -3.94834521	    -80.56382777	    -15.82673792	      0.00000000	      0.00000000	     30.65789815	      9.60361254	      2.87515348	    -27.23030236	     -1.85184437	      0.00000000	      0.00000000	     -4.51915464	     -7.63359698	      8.74347487	     16.11307480	    -12.60585107	     34.78819935	    120.26998109	     92.94837686	      0.00000000	      0.00000000	    -33.63808527	    -18.29040065	     -5.50678523	    115.36465326	     95.64819109	      0.00000000	      0.00000000
      8.17000000	     -6.81162775	      7.11081619	      5.34285764	     -0.12003695	      0.83216572	      2.59706104	     -0.14651440	     -8.85005275	     -5.01069148	    -86.25373751	    -13.84658424	      0.00000000	      0.00000000	     31.44011000	     12.11455388	      3.80313461	    -33.58206912	      1.47739547	      0.00000000	      0.00000000	     -6.16482463	     -9.06352760	      6.42382346	     14.97685325	    -13.05888810	     34.15889346	    118.29353321	     92.94515404	      0.00000000	      0.00000000	    -31.02686509	    -18.83251292	     -4.49342073	    115.28269334	     94.88968131	      0.00000000	      0.00000000
      8.18000000	     -6.40731548	      8.50713716	      6.12304003	     -0.12402168	      0.82333253	      2.59418375	      2.38968293	    -11.17989670	     -5.78158771	    -91.67660490	    -11.88516106	      0.00000000	      0.00000000	     31.95051707	     14.71408768	      4.78800680	    -39.13296475	      5.22265507	      0.00000000	      0.00000000	     -7.59821596	    -10.60063254	      4.12543446	     13.51022406	    -13.38285381	     33.23769899	    116.17590227	     92.63976355	      0.00000000	      0.00000000	    -28.02747578	    -19.65489908	     -3.26629133	    115.33513111	     94.43909500	      0.00000000	      0.00000000
